# xmcd
#
# Track frame offsets:
#	150
#	17418
#	39102
#	59665
#	79435
#	99135
#	120245
#	139928
#	158322
#	176445
#	188925
#
# Disc length: 2766 seconds
#
# Revision: 0
# Processed by: cddbd v1.4PL0 Copyright (c) Steve Scherf et al.
# Submitted via: dBpowerAMP V4.0
#
DISCID=7b0acc0b
DTITLE=Jimmy Dillon - Rituals
DYEAR=2001
DGENRE=Blues
TTITLE0=Mighty
TTITLE1=Long Road
TTITLE2=Love Not Possesion
TTITLE3=Undervover Man
TTITLE4=I'll Be There For You
TTITLE5=Trouble
TTITLE6=Louisiana Rain
TTITLE7=Heaven
TTITLE8=Rituals
TTITLE9=Dangerous Man
TTITLE10=My Blues
EXTD=
EXTT0=
EXTT1=
EXTT2=
EXTT3=
EXTT4=
EXTT5=
EXTT6=
EXTT7=
EXTT8=
EXTT9=
EXTT10=
PLAYORDER=
